<svg width="28" height="27" viewBox="0 0 28 27" fill="none" xmlns="http://www.w3.org/2000/svg">
<rect x="7.3291" y="0.5" width="1.73171" height="5.75" rx="0.865854" fill="#EF7B45" stroke="#181818"/>
<rect x="11.4268" y="0.5" width="1.73171" height="5.75" rx="0.865854" fill="#EF7B45" stroke="#181818"/>
<rect x="15.5244" y="0.5" width="1.73171" height="5.75" rx="0.865854" fill="#EF7B45" stroke="#181818"/>
<rect x="19.6221" y="0.5" width="1.73171" height="5.75" rx="0.865854" fill="#EF7B45" stroke="#181818"/>
<rect x="7.3291" y="20.75" width="1.73171" height="5.75" rx="0.865854" fill="#EF7B45" stroke="#181818"/>
<rect x="11.4268" y="20.75" width="1.73171" height="5.75" rx="0.865854" fill="#EF7B45" stroke="#181818"/>
<rect x="15.5244" y="20.75" width="1.73171" height="5.75" rx="0.865854" fill="#EF7B45" stroke="#181818"/>
<rect x="19.6221" y="20.75" width="1.73171" height="5.75" rx="0.865854" fill="#EF7B45" stroke="#181818"/>
<rect x="0.5" y="18.7251" width="5.82927" height="1.7" rx="0.85" fill="#EF7B45" stroke="#181818"/>
<rect x="0.5" y="14.675" width="5.82927" height="1.7" rx="0.85" fill="#EF7B45" stroke="#181818"/>
<rect x="0.5" y="10.625" width="5.82927" height="1.7" rx="0.85" fill="#EF7B45" stroke="#181818"/>
<rect x="0.5" y="6.57495" width="5.82927" height="1.7" rx="0.85" fill="#EF7B45" stroke="#181818"/>
<rect x="21.6709" y="18.7251" width="5.82927" height="1.7" rx="0.85" fill="#EF7B45" stroke="#181818"/>
<rect x="21.6709" y="14.675" width="5.82927" height="1.7" rx="0.85" fill="#EF7B45" stroke="#181818"/>
<rect x="21.6709" y="10.625" width="5.82927" height="1.7" rx="0.85" fill="#EF7B45" stroke="#181818"/>
<rect x="21.6709" y="6.57495" width="5.82927" height="1.7" rx="0.85" fill="#EF7B45" stroke="#181818"/>
<rect x="4.59766" y="3.875" width="19.4878" height="19.25" rx="4.5" fill="#181818" stroke="#181818"/>
</svg>
